<?xml version="1.0" ?>
<!-- Uploaded to: SVG Repo, www.svgrepo.com, Generator: SVG Repo Mixer Tools -->
<svg width="800px" height="800px" viewBox="0 0 64 64" xmlns="http://www.w3.org/2000/svg">
<defs>
<style>.cls-1{fill:#bcc2d7;}.cls-2{fill:#ab7c73;}.cls-3{fill:#6e5b5e;}</style>
</defs>
<g id="main">
<path class="cls-1" d="M10.29,19.72a3.48,3.48,0,0,1,0-5.41c1-.94,1-1.64,0-2.58a1,1,0,1,1,1.42-1.42,3.48,3.48,0,0,1,0,5.41c-1,1-1,1.65,0,2.59a1,1,0,0,1,0,1.41A1,1,0,0,1,10.29,19.72Z"/>
<path class="cls-1" d="M2.29,19.72a3.48,3.48,0,0,1,0-5.41c1-.94,1-1.64,0-2.58a1,1,0,1,1,1.42-1.42,3.48,3.48,0,0,1,0,5.41c-1,1-1,1.65,0,2.59a1,1,0,0,1,0,1.41A1,1,0,0,1,2.29,19.72Z"/>
<path class="cls-1" d="M18.29,19.72a3.48,3.48,0,0,1,0-5.41c.95-.94.95-1.64,0-2.58a1,1,0,1,1,1.42-1.42,3.48,3.48,0,0,1,0,5.41c-.95,1-.95,1.65,0,2.59a1,1,0,0,1,0,1.41A1,1,0,0,1,18.29,19.72Z"/>
<path class="cls-2" d="M62.07,8C61.85,8,39.92,6.74,34.85,25.3v0c-1.32,5.27-3,8.7-4.54,9.16-.19.06-.75.23-1.69-.61A5.14,5.14,0,0,1,27,30V28.24A5.07,5.07,0,0,0,22,23H6a5,5,0,0,0-5,5V40.28A15.74,15.74,0,0,0,16.72,56h8a10.83,10.83,0,0,0,4.09-.79c4.4-1.78,12.13-7.14,14.56-23,3.08-20,17.9-18.33,18.52-18.25a1,1,0,0,0,.79-.24A1,1,0,0,0,63,13V9A1,1,0,0,0,62.07,8Z"/>
<path class="cls-3" d="M15,51.86h-.16A11.8,11.8,0,0,1,5,41.07a1,1,0,0,1,2-.13,9.8,9.8,0,0,0,8.14,8.94A1,1,0,0,1,16,51,1,1,0,0,1,15,51.86Z"/>
</g>
</svg>