<?xml version="1.0" encoding="iso-8859-1"?>
<!-- Uploaded to: SVG Repo, www.svgrepo.com, Generator: SVG Repo Mixer Tools -->
<svg height="800px" width="800px" version="1.1" id="Layer_1" xmlns="http://www.w3.org/2000/svg" xmlns:xlink="http://www.w3.org/1999/xlink" 
	 viewBox="0 0 512 512" xml:space="preserve">
<path style="fill:#FAEBC8;" d="M433.898,355.797L8.331,372.82C3.677,373.006,0,376.833,0,381.491v18.036
	c0,4.658,3.677,8.485,8.331,8.671l425.567,17.022h17.356c9.586,0,17.356-7.77,17.356-17.356v-34.712
	c0-9.586-7.77-17.356-17.356-17.356H433.898z"/>
<path style="fill:#F5DCB4;" d="M407.864,356.838v31.604c0,4.847-3.97,8.754-8.816,8.677L0,390.784v8.743
	c0,4.658,3.677,8.485,8.331,8.671l425.567,17.022v-69.424L407.864,356.838z"/>
<path style="fill:#D5DCED;" d="M503.322,381.831c-4.797,0-8.678-3.881-8.678-8.678c0-55.797-15.211-87.034-31.313-120.093
	c-18.738-38.475-38.11-78.262-38.11-157.602c0-4.797,3.881-8.678,8.678-8.678c4.797,0,8.678,3.881,8.678,8.678
	c0,75.339,18.483,113.296,36.356,150C495.94,280.373,512,313.356,512,373.153C512,377.949,508.119,381.831,503.322,381.831z"/>
<g>
	<path style="fill:#E4EAF8;" d="M471.958,156.203c-4.263,0-7.983-3.136-8.585-7.483c-0.796-5.678-1.467-11.601-1.992-17.814
		c-0.407-4.771,3.127-8.974,7.907-9.381c4.652-0.475,8.974,3.136,9.381,7.907c0.509,5.89,1.144,11.508,1.89,16.898
		c0.661,4.746-2.652,9.127-7.398,9.788C472.754,156.178,472.356,156.203,471.958,156.203z"/>
	<path style="fill:#E4EAF8;" d="M494.695,234.339c-3.323,0-6.491-1.916-7.933-5.135c-7.06-15.813-12.203-30.017-16.169-44.703
		c-1.245-4.628,1.492-9.39,6.119-10.645c4.577-1.229,9.39,1.483,10.645,6.119c3.721,13.788,8.567,27.178,15.255,42.145
		c1.958,4.381-0.009,9.509-4.381,11.466C497.076,234.102,495.873,234.339,494.695,234.339z"/>
	<path style="fill:#E4EAF8;" d="M409.56,190.984c-3.822,0-7.322-2.543-8.373-6.415c-1.576-5.864-3-11.907-4.221-17.974
		c-0.94-4.703,2.102-9.271,6.797-10.22c4.686-0.958,9.271,2.102,10.22,6.797c1.144,5.695,2.474,11.372,3.966,16.873
		c1.245,4.628-1.492,9.39-6.119,10.645C411.076,190.89,410.314,190.984,409.56,190.984z"/>
	<path style="fill:#E4EAF8;" d="M463.551,329.763c-4.017,0-7.627-2.805-8.483-6.898c-5.72-27.246-15.788-47.915-26.441-69.797
		c-5.059-10.381-10.288-21.11-15.144-32.796c-1.847-4.424,0.246-9.5,4.678-11.339c4.381-1.847,9.5,0.246,11.339,4.679
		c4.67,11.203,9.78,21.704,14.729,31.864c10.652,21.864,21.661,44.475,27.822,73.831c0.983,4.686-2.017,9.289-6.712,10.271
		C464.738,329.703,464.144,329.763,463.551,329.763z"/>
</g>
<path style="fill:#FF6464;" d="M451.254,425.22c9.585,0,17.356-7.771,17.356-17.356v-34.712c0-9.586-7.771-17.356-17.356-17.356
	h-17.356v69.424H451.254z"/>
</svg>