<?xml version="1.0" ?>
<!-- Uploaded to: SVG Repo, www.svgrepo.com, Generator: SVG Repo Mixer Tools -->
<svg width="800px" height="800px" viewBox="0 0 24 24" enable-background="new 0 0 24 24" id="Layer_1" version="1.1" xml:space="preserve" xmlns="http://www.w3.org/2000/svg" xmlns:xlink="http://www.w3.org/1999/xlink">
<g>
<path d="M22.9746094,1.0088501c-1.3212891-1.3222656-3.6254883-1.324707-4.9516602,0.0024414L0.144043,19.1323853   C0.0517578,19.225647,0,19.3521118,0,19.4834595c0,2.4814453,2.0185547,4.5,4.5,4.5   c0.1313477,0,0.2578125-0.0517578,0.3510742-0.144043L22.9746094,5.9580688C23.6357422,5.2974243,24,4.4185181,24,3.4834595   S23.6357422,1.6694946,22.9746094,1.0088501z" fill="#303C42"/>
<path d="M13.2993164,13.9771118c-0.4780273-0.0297852-0.9511719-0.1655273-1.4091797-0.4052734   c-0.0722656-0.0380859-0.1518555-0.0571289-0.2319336-0.0571289c-0.0444336,0-0.0888672,0.0058594-0.1323242,0.0175781   c-0.3842773,0.1054688-0.7197266,0.0507812-0.9223633-0.1523438c-0.2021484-0.2021484-0.2578125-0.5385742-0.152832-0.9223633   c0.0336914-0.1220703,0.0195312-0.2519531-0.0390625-0.3642578c-0.2397461-0.4580078-0.3754883-0.9311523-0.4052734-1.4091797   l1.1279297-1.1279297c0.1132812,0.4462891,0.2958984,0.8789062,0.5449219,1.2817383   c0.0922852,0.1503906,0.2841797,0.2226562,0.4350586,0.2373047c0.1821289-0.0151367,0.4199219,0.0288086,0.5927734,0.2011719   c0.1728516,0.1728516,0.2045898,0.4174805,0.2011719,0.5927734c-0.003418,0.1767578,0.0869141,0.3422852,0.2373047,0.4350586   c0.402832,0.2490234,0.8354492,0.4316406,1.2817383,0.5449219L13.2993164,13.9771118z" fill="#63554F"/>
<path d="M9.4414062,12.3877563c-0.125,0.6591797,0.0390625,1.2832031,0.4550781,1.6992188   c0.4155273,0.4155273,1.0415039,0.5810547,1.6987305,0.4550781c0.3031616,0.1442871,0.6123657,0.2518311,0.9254761,0.3255615   L6.338501,20.9671021c-1.7987061-0.0838623-3.2382812-1.5234375-3.3221436-3.3221436l6.0995483-6.1821899   C9.1896362,11.7758179,9.2971802,12.0848389,9.4414062,12.3877563z" fill="#8E532A"/>
<path d="M4.3007812,22.9776001c-1.7719727-0.0996094-3.1953125-1.5229492-3.2949219-3.2949219l1.1313477-1.1466675   c0.3948364,1.633667,1.6765747,2.9154053,3.3102417,3.3102417L4.3007812,22.9776001z" fill="#8E532A"/>
<path d="M22.2700195,5.2485962l-6.8198242,6.7286377c-0.5358887-0.0081787-1.0689697-0.1404419-1.5576172-0.3970947   c-0.0488281-0.3984375-0.2114258-0.7436523-0.4785156-1.0107422s-0.6123047-0.4296875-1.0107422-0.4785156   c-0.2566528-0.4886475-0.388916-1.0217285-0.3970947-1.5576172l6.7261963-6.8173828   c0.9443359-0.9443359,2.5908203-0.9443359,3.5351562,0C22.7397461,2.1880493,23,2.815979,23,3.4834595   S22.7397461,4.7788696,22.2700195,5.2485962z" fill="#8E532A"/>
<path d="M13.2993164,13.9771118l1.1279297-1.1279297c-0.3253174-0.0825806-0.6386108-0.2144775-0.9431763-0.3696289   l-1.2399902,1.2351685C12.5910645,13.854187,12.942627,13.954895,13.2993164,13.9771118z" opacity="0.1"/>
<path d="M6.338501,20.9671021l6.1821899-6.0994873c-0.3131104-0.0737305-0.6223145-0.1812744-0.9254761-0.3255615   c-0.0673218,0.0128784-0.131958,0.0097656-0.1984253,0.0166016l-6.180542,6.1560669   C5.5673218,20.8544312,5.9418335,20.9486084,6.338501,20.9671021z" opacity="0.1"/>
<path d="M4.3007812,22.9776001l1.1466675-1.1313477c-0.348938-0.0843506-0.6773682-0.2166748-0.9890137-0.376709   l-1.2572632,1.2523193C3.5457153,22.8605347,3.9124756,22.9557495,4.3007812,22.9776001z" opacity="0.1"/>
<path d="M22.2675781,1.7158813c-0.3106689-0.3106689-0.7001343-0.5088501-1.112793-0.6151123   c0.036438,0.0321045,0.078125,0.0562744,0.112793,0.0909424C21.7397461,1.6638794,22,2.2918091,22,2.9592896   s-0.2602539,1.2954102-0.7299805,1.7651367l-7.0203247,6.9926147c0.3882446,0.1517944,0.7903442,0.2539062,1.2005005,0.2601929   l6.8198242-6.7286377C22.7397461,4.7788696,23,4.1509399,23,3.4834595S22.7397461,2.1880493,22.2675781,1.7158813z" opacity="0.1"/>
<linearGradient gradientUnits="userSpaceOnUse" id="SVGID_1_" x1="5.0400805" x2="18.9664612" y1="8.5640697" y2="15.0580473">
<stop offset="0" style="stop-color:#FFFFFF;stop-opacity:0.2"/>
<stop offset="1" style="stop-color:#FFFFFF;stop-opacity:0"/>
</linearGradient>
<path d="M22.9746094,1.0088501c-1.3212891-1.3222656-3.6254883-1.324707-4.9516602,0.0024414   L0.144043,19.1323853C0.0517578,19.225647,0,19.3521118,0,19.4834595c0,2.4814453,2.0185547,4.5,4.5,4.5   c0.1313477,0,0.2578125-0.0517578,0.3510742-0.144043L22.9746094,5.9580688C23.6357422,5.2974243,24,4.4185181,24,3.4834595   S23.6357422,1.6694946,22.9746094,1.0088501z" fill="url(#SVGID_1_)"/>
</g>
<g/>
<g/>
<g/>
<g/>
<g/>
<g/>
<g/>
<g/>
<g/>
<g/>
<g/>
<g/>
<g/>
<g/>
<g/>
</svg>